<svg width="761" height="95" viewBox="0 0 761 95" fill="none" xmlns="http://www.w3.org/2000/svg">
<path d="M-261.296 93V2.632H-241.2V93H-261.296ZM-205.36 93V2.632H-185.136V93H-205.36ZM-249.264 55.24V37.832H-198.704V55.24H-249.264ZM-139.636 94.408C-146.036 94.408 -151.839 93 -157.044 90.184C-162.164 87.2827 -166.217 83.3573 -169.204 78.408C-172.191 73.4587 -173.684 67.912 -173.684 61.768C-173.684 55.624 -172.191 50.12 -169.204 45.256C-166.217 40.392 -162.164 36.552 -157.044 33.736C-151.924 30.8347 -146.121 29.384 -139.636 29.384C-133.151 29.384 -127.348 30.792 -122.228 33.608C-117.108 36.424 -113.055 40.3067 -110.068 45.256C-107.081 50.12 -105.588 55.624 -105.588 61.768C-105.588 67.912 -107.081 73.4587 -110.068 78.408C-113.055 83.3573 -117.108 87.2827 -122.228 90.184C-127.348 93 -133.151 94.408 -139.636 94.408ZM-139.636 76.616C-136.82 76.616 -134.345 76.0187 -132.212 74.824C-130.079 73.544 -128.457 71.7947 -127.348 69.576C-126.153 67.272 -125.556 64.6693 -125.556 61.768C-125.556 58.8667 -126.153 56.3493 -127.348 54.216C-128.543 51.9973 -130.207 50.2907 -132.34 49.096C-134.388 47.816 -136.82 47.176 -139.636 47.176C-142.367 47.176 -144.799 47.816 -146.932 49.096C-149.065 50.2907 -150.729 51.9973 -151.924 54.216C-153.119 56.4347 -153.716 58.9947 -153.716 61.896C-153.716 64.712 -153.119 67.272 -151.924 69.576C-150.729 71.7947 -149.065 73.544 -146.932 74.824C-144.799 76.0187 -142.367 76.616 -139.636 76.616ZM-81.856 93L-103.36 30.792H-84.16L-70.848 75.976L-76.48 76.104L-61.76 30.792H-45.888L-31.04 76.104L-36.8 75.976L-23.36 30.792H-4.16L-25.664 93H-41.664L-56.128 49.992H-51.264L-65.984 93H-81.856ZM44.939 93V77.384H66.187C70.1123 77.384 73.1843 76.232 75.403 73.928C77.6217 71.624 78.731 68.808 78.731 65.48C78.731 63.176 78.219 61.128 77.195 59.336C76.171 57.544 74.7203 56.136 72.843 55.112C71.051 54.088 68.8323 53.576 66.187 53.576H44.939V38.344H64.523C67.851 38.344 70.539 37.5333 72.587 35.912C74.635 34.2053 75.659 31.6453 75.659 28.232C75.659 24.904 74.635 22.4293 72.587 20.808C70.539 19.1013 67.851 18.248 64.523 18.248H44.939V2.632H68.363C74.1657 2.632 79.0723 3.69866 83.083 5.83199C87.179 7.96533 90.2937 10.824 92.427 14.408C94.5603 17.992 95.627 21.96 95.627 26.312C95.627 31.8587 93.835 36.552 90.251 40.392C86.667 44.232 81.3763 46.8773 74.379 48.328L74.891 41.544C82.4857 42.9947 88.331 45.9387 92.427 50.376C96.6083 54.8133 98.699 60.2747 98.699 66.76C98.699 71.7093 97.4617 76.1893 94.987 80.2C92.5977 84.1253 89.099 87.24 84.491 89.544C79.9683 91.848 74.507 93 68.107 93H44.939ZM29.579 93V2.632H49.419V93H29.579ZM137.435 94.408C131.718 94.408 126.64 93.256 122.203 90.952C117.851 88.5627 114.438 85.32 111.963 81.224C109.488 77.0427 108.251 72.264 108.251 66.888V30.792H127.835V66.632C127.835 68.7653 128.176 70.6 128.859 72.136C129.627 73.672 130.736 74.8667 132.187 75.72C133.638 76.5733 135.387 77 137.435 77C140.336 77 142.64 76.104 144.347 74.312C146.054 72.4347 146.907 69.8747 146.907 66.632V30.792H166.491V66.76C166.491 72.2213 165.254 77.0427 162.779 81.224C160.304 85.32 156.891 88.5627 152.539 90.952C148.187 93.256 143.152 94.408 137.435 94.408ZM205.283 94.28C199.395 94.28 194.147 92.872 189.539 90.056C185.016 87.24 181.432 83.4 178.787 78.536C176.227 73.672 174.947 68.1253 174.947 61.896C174.947 55.6667 176.227 50.12 178.787 45.256C181.432 40.392 185.016 36.552 189.539 33.736C194.147 30.92 199.395 29.512 205.283 29.512C209.55 29.512 213.39 30.3227 216.803 31.944C220.302 33.5653 223.16 35.8267 225.379 38.728C227.683 41.544 228.963 44.7867 229.219 48.456V74.696C228.963 78.3653 227.726 81.6933 225.507 84.68C223.288 87.5813 220.43 89.928 216.931 91.72C213.432 93.4267 209.55 94.28 205.283 94.28ZM208.739 76.616C211.555 76.616 213.987 76.0187 216.035 74.824C218.083 73.544 219.704 71.7947 220.899 69.576C222.094 67.3573 222.691 64.7973 222.691 61.896C222.691 58.9947 222.094 56.4773 220.899 54.344C219.79 52.1253 218.168 50.376 216.035 49.096C213.987 47.816 211.598 47.176 208.867 47.176C206.136 47.176 203.704 47.816 201.571 49.096C199.523 50.376 197.859 52.1253 196.579 54.344C195.384 56.5627 194.787 59.08 194.787 61.896C194.787 64.712 195.384 67.2293 196.579 69.448C197.774 71.6667 199.438 73.416 201.571 74.696C203.704 75.976 206.094 76.616 208.739 76.616ZM241.123 93H221.923V76.232L224.867 61.128L221.539 46.024V0.0719986H241.123V93ZM277.568 94.536C273.899 94.536 270.272 94.0667 266.688 93.128C263.189 92.1893 259.904 90.8667 256.832 89.16C253.845 87.368 251.285 85.32 249.152 83.016L260.288 71.752C262.336 73.9707 264.768 75.72 267.584 77C270.4 78.1947 273.472 78.792 276.8 78.792C279.104 78.792 280.853 78.4507 282.048 77.768C283.328 77.0853 283.968 76.1467 283.968 74.952C283.968 73.416 283.2 72.264 281.664 71.496C280.213 70.6427 278.336 69.9173 276.032 69.32C273.728 68.6373 271.296 67.912 268.736 67.144C266.176 66.376 263.744 65.3093 261.44 63.944C259.136 62.5787 257.259 60.7013 255.808 58.312C254.357 55.8373 253.632 52.7227 253.632 48.968C253.632 44.9573 254.656 41.5013 256.704 38.6C258.752 35.6133 261.653 33.2667 265.408 31.56C269.163 29.8533 273.557 29 278.592 29C283.883 29 288.747 29.9387 293.184 31.816C297.707 33.608 301.376 36.296 304.192 39.88L293.056 51.144C291.093 48.84 288.875 47.2187 286.4 46.28C284.011 45.3413 281.664 44.872 279.36 44.872C277.141 44.872 275.477 45.2133 274.368 45.896C273.259 46.4933 272.704 47.3893 272.704 48.584C272.704 49.864 273.429 50.888 274.88 51.656C276.331 52.424 278.208 53.1067 280.512 53.704C282.816 54.3013 285.248 55.0267 287.808 55.88C290.368 56.7333 292.8 57.8853 295.104 59.336C297.408 60.7867 299.285 62.7493 300.736 65.224C302.187 67.6133 302.912 70.7707 302.912 74.696C302.912 80.7547 300.608 85.576 296 89.16C291.477 92.744 285.333 94.536 277.568 94.536ZM336.193 94.536C332.524 94.536 328.897 94.0667 325.313 93.128C321.814 92.1893 318.529 90.8667 315.457 89.16C312.47 87.368 309.91 85.32 307.777 83.016L318.913 71.752C320.961 73.9707 323.393 75.72 326.209 77C329.025 78.1947 332.097 78.792 335.425 78.792C337.729 78.792 339.478 78.4507 340.673 77.768C341.953 77.0853 342.593 76.1467 342.593 74.952C342.593 73.416 341.825 72.264 340.289 71.496C338.838 70.6427 336.961 69.9173 334.657 69.32C332.353 68.6373 329.921 67.912 327.361 67.144C324.801 66.376 322.369 65.3093 320.065 63.944C317.761 62.5787 315.884 60.7013 314.433 58.312C312.982 55.8373 312.257 52.7227 312.257 48.968C312.257 44.9573 313.281 41.5013 315.329 38.6C317.377 35.6133 320.278 33.2667 324.033 31.56C327.788 29.8533 332.182 29 337.217 29C342.508 29 347.372 29.9387 351.809 31.816C356.332 33.608 360.001 36.296 362.817 39.88L351.681 51.144C349.718 48.84 347.5 47.2187 345.025 46.28C342.636 45.3413 340.289 44.872 337.985 44.872C335.766 44.872 334.102 45.2133 332.993 45.896C331.884 46.4933 331.329 47.3893 331.329 48.584C331.329 49.864 332.054 50.888 333.505 51.656C334.956 52.424 336.833 53.1067 339.137 53.704C341.441 54.3013 343.873 55.0267 346.433 55.88C348.993 56.7333 351.425 57.8853 353.729 59.336C356.033 60.7867 357.91 62.7493 359.361 65.224C360.812 67.6133 361.537 70.7707 361.537 74.696C361.537 80.7547 359.233 85.576 354.625 89.16C350.102 92.744 343.958 94.536 336.193 94.536ZM420.857 93L391.801 2.632H411.769L433.017 72.136H425.209L445.945 2.632H461.689L482.425 72.136H474.745L495.865 2.632H515.705L486.649 93H470.905L450.041 23.496H457.465L436.601 93H420.857ZM546.739 94.408C540.339 94.408 534.536 93 529.331 90.184C524.211 87.2827 520.158 83.3573 517.171 78.408C514.184 73.4587 512.691 67.912 512.691 61.768C512.691 55.624 514.184 50.12 517.171 45.256C520.158 40.392 524.211 36.552 529.331 33.736C534.451 30.8347 540.254 29.384 546.739 29.384C553.224 29.384 559.027 30.792 564.147 33.608C569.267 36.424 573.32 40.3067 576.307 45.256C579.294 50.12 580.787 55.624 580.787 61.768C580.787 67.912 579.294 73.4587 576.307 78.408C573.32 83.3573 569.267 87.2827 564.147 90.184C559.027 93 553.224 94.408 546.739 94.408ZM546.739 76.616C549.555 76.616 552.03 76.0187 554.163 74.824C556.296 73.544 557.918 71.7947 559.027 69.576C560.222 67.272 560.819 64.6693 560.819 61.768C560.819 58.8667 560.222 56.3493 559.027 54.216C557.832 51.9973 556.168 50.2907 554.035 49.096C551.987 47.816 549.555 47.176 546.739 47.176C544.008 47.176 541.576 47.816 539.443 49.096C537.31 50.2907 535.646 51.9973 534.451 54.216C533.256 56.4347 532.659 58.9947 532.659 61.896C532.659 64.712 533.256 67.272 534.451 69.576C535.646 71.7947 537.31 73.544 539.443 74.824C541.576 76.0187 544.008 76.616 546.739 76.616ZM590.537 93V30.792H610.121V93H590.537ZM610.121 58.824L601.929 52.424C603.55 45.1707 606.281 39.5387 610.121 35.528C613.961 31.5173 619.294 29.512 626.121 29.512C629.108 29.512 631.71 29.9813 633.929 30.92C636.233 31.7733 638.238 33.1387 639.945 35.016L628.297 49.736C627.444 48.7973 626.377 48.072 625.097 47.56C623.817 47.048 622.366 46.792 620.745 46.792C617.502 46.792 614.9 47.816 612.937 49.864C611.06 51.8267 610.121 54.8133 610.121 58.824ZM684.97 93L663.21 60.744L684.842 30.792H706.73L680.618 64.456L681.258 56.392L708.01 93H684.97ZM645.162 93V0.0719986H664.746V93H645.162ZM734.068 94.536C730.399 94.536 726.772 94.0667 723.188 93.128C719.689 92.1893 716.404 90.8667 713.332 89.16C710.345 87.368 707.785 85.32 705.652 83.016L716.788 71.752C718.836 73.9707 721.268 75.72 724.084 77C726.9 78.1947 729.972 78.792 733.3 78.792C735.604 78.792 737.353 78.4507 738.548 77.768C739.828 77.0853 740.468 76.1467 740.468 74.952C740.468 73.416 739.7 72.264 738.164 71.496C736.713 70.6427 734.836 69.9173 732.532 69.32C730.228 68.6373 727.796 67.912 725.236 67.144C722.676 66.376 720.244 65.3093 717.94 63.944C715.636 62.5787 713.759 60.7013 712.308 58.312C710.857 55.8373 710.132 52.7227 710.132 48.968C710.132 44.9573 711.156 41.5013 713.204 38.6C715.252 35.6133 718.153 33.2667 721.908 31.56C725.663 29.8533 730.057 29 735.092 29C740.383 29 745.247 29.9387 749.684 31.816C754.207 33.608 757.876 36.296 760.692 39.88L749.556 51.144C747.593 48.84 745.375 47.2187 742.9 46.28C740.511 45.3413 738.164 44.872 735.86 44.872C733.641 44.872 731.977 45.2133 730.868 45.896C729.759 46.4933 729.204 47.3893 729.204 48.584C729.204 49.864 729.929 50.888 731.38 51.656C732.831 52.424 734.708 53.1067 737.012 53.704C739.316 54.3013 741.748 55.0267 744.308 55.88C746.868 56.7333 749.3 57.8853 751.604 59.336C753.908 60.7867 755.785 62.7493 757.236 65.224C758.687 67.6133 759.412 70.7707 759.412 74.696C759.412 80.7547 757.108 85.576 752.5 89.16C747.977 92.744 741.833 94.536 734.068 94.536Z" fill="#2FDBBC"/>
</svg>
