<svg width="504" height="95" viewBox="0 0 504 95" fill="none" xmlns="http://www.w3.org/2000/svg">
<path d="M-518.296 93V2.632H-498.2V93H-518.296ZM-462.36 93V2.632H-442.136V93H-462.36ZM-506.264 55.24V37.832H-455.704V55.24H-506.264ZM-396.636 94.408C-403.036 94.408 -408.839 93 -414.044 90.184C-419.164 87.2827 -423.217 83.3573 -426.204 78.408C-429.191 73.4587 -430.684 67.912 -430.684 61.768C-430.684 55.624 -429.191 50.12 -426.204 45.256C-423.217 40.392 -419.164 36.552 -414.044 33.736C-408.924 30.8347 -403.121 29.384 -396.636 29.384C-390.151 29.384 -384.348 30.792 -379.228 33.608C-374.108 36.424 -370.055 40.3067 -367.068 45.256C-364.081 50.12 -362.588 55.624 -362.588 61.768C-362.588 67.912 -364.081 73.4587 -367.068 78.408C-370.055 83.3573 -374.108 87.2827 -379.228 90.184C-384.348 93 -390.151 94.408 -396.636 94.408ZM-396.636 76.616C-393.82 76.616 -391.345 76.0187 -389.212 74.824C-387.079 73.544 -385.457 71.7947 -384.348 69.576C-383.153 67.272 -382.556 64.6693 -382.556 61.768C-382.556 58.8667 -383.153 56.3493 -384.348 54.216C-385.543 51.9973 -387.207 50.2907 -389.34 49.096C-391.388 47.816 -393.82 47.176 -396.636 47.176C-399.367 47.176 -401.799 47.816 -403.932 49.096C-406.065 50.2907 -407.729 51.9973 -408.924 54.216C-410.119 56.4347 -410.716 58.9947 -410.716 61.896C-410.716 64.712 -410.119 67.272 -408.924 69.576C-407.729 71.7947 -406.065 73.544 -403.932 74.824C-401.799 76.0187 -399.367 76.616 -396.636 76.616ZM-338.856 93L-360.36 30.792H-341.16L-327.848 75.976L-333.48 76.104L-318.76 30.792H-302.888L-288.04 76.104L-293.8 75.976L-280.36 30.792H-261.16L-282.664 93H-298.664L-313.128 49.992H-308.264L-322.984 93H-338.856ZM-212.061 93V77.384H-190.813C-186.888 77.384 -183.816 76.232 -181.597 73.928C-179.378 71.624 -178.269 68.808 -178.269 65.48C-178.269 63.176 -178.781 61.128 -179.805 59.336C-180.829 57.544 -182.28 56.136 -184.157 55.112C-185.949 54.088 -188.168 53.576 -190.813 53.576H-212.061V38.344H-192.477C-189.149 38.344 -186.461 37.5333 -184.413 35.912C-182.365 34.2053 -181.341 31.6453 -181.341 28.232C-181.341 24.904 -182.365 22.4293 -184.413 20.808C-186.461 19.1013 -189.149 18.248 -192.477 18.248H-212.061V2.632H-188.637C-182.834 2.632 -177.928 3.69866 -173.917 5.83199C-169.821 7.96533 -166.706 10.824 -164.573 14.408C-162.44 17.992 -161.373 21.96 -161.373 26.312C-161.373 31.8587 -163.165 36.552 -166.749 40.392C-170.333 44.232 -175.624 46.8773 -182.621 48.328L-182.109 41.544C-174.514 42.9947 -168.669 45.9387 -164.573 50.376C-160.392 54.8133 -158.301 60.2747 -158.301 66.76C-158.301 71.7093 -159.538 76.1893 -162.013 80.2C-164.402 84.1253 -167.901 87.24 -172.509 89.544C-177.032 91.848 -182.493 93 -188.893 93H-212.061ZM-227.421 93V2.632H-207.581V93H-227.421ZM-119.565 94.408C-125.282 94.408 -130.36 93.256 -134.797 90.952C-139.149 88.5627 -142.562 85.32 -145.037 81.224C-147.512 77.0427 -148.749 72.264 -148.749 66.888V30.792H-129.165V66.632C-129.165 68.7653 -128.824 70.6 -128.141 72.136C-127.373 73.672 -126.264 74.8667 -124.813 75.72C-123.362 76.5733 -121.613 77 -119.565 77C-116.664 77 -114.36 76.104 -112.653 74.312C-110.946 72.4347 -110.093 69.8747 -110.093 66.632V30.792H-90.509V66.76C-90.509 72.2213 -91.7463 77.0427 -94.221 81.224C-96.6957 85.32 -100.109 88.5627 -104.461 90.952C-108.813 93.256 -113.848 94.408 -119.565 94.408ZM-51.717 94.28C-57.605 94.28 -62.853 92.872 -67.461 90.056C-71.9837 87.24 -75.5677 83.4 -78.213 78.536C-80.773 73.672 -82.053 68.1253 -82.053 61.896C-82.053 55.6667 -80.773 50.12 -78.213 45.256C-75.5677 40.392 -71.9837 36.552 -67.461 33.736C-62.853 30.92 -57.605 29.512 -51.717 29.512C-47.4503 29.512 -43.6103 30.3227 -40.197 31.944C-36.6983 33.5653 -33.8397 35.8267 -31.621 38.728C-29.317 41.544 -28.037 44.7867 -27.781 48.456V74.696C-28.037 78.3653 -29.2743 81.6933 -31.493 84.68C-33.7117 87.5813 -36.5703 89.928 -40.069 91.72C-43.5677 93.4267 -47.4503 94.28 -51.717 94.28ZM-48.261 76.616C-45.445 76.616 -43.013 76.0187 -40.965 74.824C-38.917 73.544 -37.2957 71.7947 -36.101 69.576C-34.9063 67.3573 -34.309 64.7973 -34.309 61.896C-34.309 58.9947 -34.9063 56.4773 -36.101 54.344C-37.2103 52.1253 -38.8317 50.376 -40.965 49.096C-43.013 47.816 -45.4023 47.176 -48.133 47.176C-50.8637 47.176 -53.2957 47.816 -55.429 49.096C-57.477 50.376 -59.141 52.1253 -60.421 54.344C-61.6157 56.5627 -62.213 59.08 -62.213 61.896C-62.213 64.712 -61.6157 67.2293 -60.421 69.448C-59.2263 71.6667 -57.5623 73.416 -55.429 74.696C-53.2957 75.976 -50.9063 76.616 -48.261 76.616ZM-15.877 93H-35.077V76.232L-32.133 61.128L-35.461 46.024V0.0719986H-15.877V93ZM20.568 94.536C16.8987 94.536 13.272 94.0667 9.688 93.128C6.18933 92.1893 2.904 90.8667 -0.167999 89.16C-3.15467 87.368 -5.71467 85.32 -7.848 83.016L3.288 71.752C5.336 73.9707 7.768 75.72 10.584 77C13.4 78.1947 16.472 78.792 19.8 78.792C22.104 78.792 23.8533 78.4507 25.048 77.768C26.328 77.0853 26.968 76.1467 26.968 74.952C26.968 73.416 26.2 72.264 24.664 71.496C23.2133 70.6427 21.336 69.9173 19.032 69.32C16.728 68.6373 14.296 67.912 11.736 67.144C9.176 66.376 6.744 65.3093 4.44 63.944C2.136 62.5787 0.258667 60.7013 -1.192 58.312C-2.64267 55.8373 -3.368 52.7227 -3.368 48.968C-3.368 44.9573 -2.344 41.5013 -0.296 38.6C1.752 35.6133 4.65333 33.2667 8.408 31.56C12.1627 29.8533 16.5573 29 21.592 29C26.8827 29 31.7467 29.9387 36.184 31.816C40.7067 33.608 44.376 36.296 47.192 39.88L36.056 51.144C34.0933 48.84 31.8747 47.2187 29.4 46.28C27.0107 45.3413 24.664 44.872 22.36 44.872C20.1413 44.872 18.4773 45.2133 17.368 45.896C16.2587 46.4933 15.704 47.3893 15.704 48.584C15.704 49.864 16.4293 50.888 17.88 51.656C19.3307 52.424 21.208 53.1067 23.512 53.704C25.816 54.3013 28.248 55.0267 30.808 55.88C33.368 56.7333 35.8 57.8853 38.104 59.336C40.408 60.7867 42.2853 62.7493 43.736 65.224C45.1867 67.6133 45.912 70.7707 45.912 74.696C45.912 80.7547 43.608 85.576 39 89.16C34.4773 92.744 28.3333 94.536 20.568 94.536ZM79.193 94.536C75.5237 94.536 71.897 94.0667 68.313 93.128C64.8143 92.1893 61.529 90.8667 58.457 89.16C55.4703 87.368 52.9103 85.32 50.777 83.016L61.913 71.752C63.961 73.9707 66.393 75.72 69.209 77C72.025 78.1947 75.097 78.792 78.425 78.792C80.729 78.792 82.4783 78.4507 83.673 77.768C84.953 77.0853 85.593 76.1467 85.593 74.952C85.593 73.416 84.825 72.264 83.289 71.496C81.8383 70.6427 79.961 69.9173 77.657 69.32C75.353 68.6373 72.921 67.912 70.361 67.144C67.801 66.376 65.369 65.3093 63.065 63.944C60.761 62.5787 58.8837 60.7013 57.433 58.312C55.9823 55.8373 55.257 52.7227 55.257 48.968C55.257 44.9573 56.281 41.5013 58.329 38.6C60.377 35.6133 63.2783 33.2667 67.033 31.56C70.7877 29.8533 75.1823 29 80.217 29C85.5077 29 90.3717 29.9387 94.809 31.816C99.3317 33.608 103.001 36.296 105.817 39.88L94.681 51.144C92.7183 48.84 90.4997 47.2187 88.025 46.28C85.6357 45.3413 83.289 44.872 80.985 44.872C78.7663 44.872 77.1023 45.2133 75.993 45.896C74.8837 46.4933 74.329 47.3893 74.329 48.584C74.329 49.864 75.0543 50.888 76.505 51.656C77.9557 52.424 79.833 53.1067 82.137 53.704C84.441 54.3013 86.873 55.0267 89.433 55.88C91.993 56.7333 94.425 57.8853 96.729 59.336C99.033 60.7867 100.91 62.7493 102.361 65.224C103.812 67.6133 104.537 70.7707 104.537 74.696C104.537 80.7547 102.233 85.576 97.625 89.16C93.1023 92.744 86.9583 94.536 79.193 94.536ZM163.857 93L134.801 2.632H154.769L176.017 72.136H168.209L188.945 2.632H204.689L225.425 72.136H217.745L238.865 2.632H258.705L229.649 93H213.905L193.041 23.496H200.465L179.601 93H163.857ZM289.739 94.408C283.339 94.408 277.536 93 272.331 90.184C267.211 87.2827 263.158 83.3573 260.171 78.408C257.184 73.4587 255.691 67.912 255.691 61.768C255.691 55.624 257.184 50.12 260.171 45.256C263.158 40.392 267.211 36.552 272.331 33.736C277.451 30.8347 283.254 29.384 289.739 29.384C296.224 29.384 302.027 30.792 307.147 33.608C312.267 36.424 316.32 40.3067 319.307 45.256C322.294 50.12 323.787 55.624 323.787 61.768C323.787 67.912 322.294 73.4587 319.307 78.408C316.32 83.3573 312.267 87.2827 307.147 90.184C302.027 93 296.224 94.408 289.739 94.408ZM289.739 76.616C292.555 76.616 295.03 76.0187 297.163 74.824C299.296 73.544 300.918 71.7947 302.027 69.576C303.222 67.272 303.819 64.6693 303.819 61.768C303.819 58.8667 303.222 56.3493 302.027 54.216C300.832 51.9973 299.168 50.2907 297.035 49.096C294.987 47.816 292.555 47.176 289.739 47.176C287.008 47.176 284.576 47.816 282.443 49.096C280.31 50.2907 278.646 51.9973 277.451 54.216C276.256 56.4347 275.659 58.9947 275.659 61.896C275.659 64.712 276.256 67.272 277.451 69.576C278.646 71.7947 280.31 73.544 282.443 74.824C284.576 76.0187 287.008 76.616 289.739 76.616ZM333.537 93V30.792H353.121V93H333.537ZM353.121 58.824L344.929 52.424C346.55 45.1707 349.281 39.5387 353.121 35.528C356.961 31.5173 362.294 29.512 369.121 29.512C372.108 29.512 374.71 29.9813 376.929 30.92C379.233 31.7733 381.238 33.1387 382.945 35.016L371.297 49.736C370.444 48.7973 369.377 48.072 368.097 47.56C366.817 47.048 365.366 46.792 363.745 46.792C360.502 46.792 357.9 47.816 355.937 49.864C354.06 51.8267 353.121 54.8133 353.121 58.824ZM427.97 93L406.21 60.744L427.842 30.792H449.73L423.618 64.456L424.258 56.392L451.01 93H427.97ZM388.162 93V0.0719986H407.746V93H388.162ZM477.068 94.536C473.399 94.536 469.772 94.0667 466.188 93.128C462.689 92.1893 459.404 90.8667 456.332 89.16C453.345 87.368 450.785 85.32 448.652 83.016L459.788 71.752C461.836 73.9707 464.268 75.72 467.084 77C469.9 78.1947 472.972 78.792 476.3 78.792C478.604 78.792 480.353 78.4507 481.548 77.768C482.828 77.0853 483.468 76.1467 483.468 74.952C483.468 73.416 482.7 72.264 481.164 71.496C479.713 70.6427 477.836 69.9173 475.532 69.32C473.228 68.6373 470.796 67.912 468.236 67.144C465.676 66.376 463.244 65.3093 460.94 63.944C458.636 62.5787 456.759 60.7013 455.308 58.312C453.857 55.8373 453.132 52.7227 453.132 48.968C453.132 44.9573 454.156 41.5013 456.204 38.6C458.252 35.6133 461.153 33.2667 464.908 31.56C468.663 29.8533 473.057 29 478.092 29C483.383 29 488.247 29.9387 492.684 31.816C497.207 33.608 500.876 36.296 503.692 39.88L492.556 51.144C490.593 48.84 488.375 47.2187 485.9 46.28C483.511 45.3413 481.164 44.872 478.86 44.872C476.641 44.872 474.977 45.2133 473.868 45.896C472.759 46.4933 472.204 47.3893 472.204 48.584C472.204 49.864 472.929 50.888 474.38 51.656C475.831 52.424 477.708 53.1067 480.012 53.704C482.316 54.3013 484.748 55.0267 487.308 55.88C489.868 56.7333 492.3 57.8853 494.604 59.336C496.908 60.7867 498.785 62.7493 500.236 65.224C501.687 67.6133 502.412 70.7707 502.412 74.696C502.412 80.7547 500.108 85.576 495.5 89.16C490.977 92.744 484.833 94.536 477.068 94.536Z" fill="#FFAA4C"/>
</svg>
