<svg width="457" height="95" viewBox="0 0 457 95" fill="none" xmlns="http://www.w3.org/2000/svg">
<path d="M0.704 93V2.632H20.8V93H0.704ZM56.64 93V2.632H76.864V93H56.64ZM12.736 55.24V37.832H63.296V55.24H12.736ZM122.364 94.408C115.964 94.408 110.161 93 104.956 90.184C99.836 87.2827 95.7827 83.3573 92.796 78.408C89.8093 73.4587 88.316 67.912 88.316 61.768C88.316 55.624 89.8093 50.12 92.796 45.256C95.7827 40.392 99.836 36.552 104.956 33.736C110.076 30.8347 115.879 29.384 122.364 29.384C128.849 29.384 134.652 30.792 139.772 33.608C144.892 36.424 148.945 40.3067 151.932 45.256C154.919 50.12 156.412 55.624 156.412 61.768C156.412 67.912 154.919 73.4587 151.932 78.408C148.945 83.3573 144.892 87.2827 139.772 90.184C134.652 93 128.849 94.408 122.364 94.408ZM122.364 76.616C125.18 76.616 127.655 76.0187 129.788 74.824C131.921 73.544 133.543 71.7947 134.652 69.576C135.847 67.272 136.444 64.6693 136.444 61.768C136.444 58.8667 135.847 56.3493 134.652 54.216C133.457 51.9973 131.793 50.2907 129.66 49.096C127.612 47.816 125.18 47.176 122.364 47.176C119.633 47.176 117.201 47.816 115.068 49.096C112.935 50.2907 111.271 51.9973 110.076 54.216C108.881 56.4347 108.284 58.9947 108.284 61.896C108.284 64.712 108.881 67.272 110.076 69.576C111.271 71.7947 112.935 73.544 115.068 74.824C117.201 76.0187 119.633 76.616 122.364 76.616ZM180.144 93L158.64 30.792H177.84L191.152 75.976L185.52 76.104L200.24 30.792H216.112L230.96 76.104L225.2 75.976L238.64 30.792H257.84L236.336 93H220.336L205.872 49.992H210.736L196.016 93H180.144ZM306.939 93V77.384H328.187C332.112 77.384 335.184 76.232 337.403 73.928C339.622 71.624 340.731 68.808 340.731 65.48C340.731 63.176 340.219 61.128 339.195 59.336C338.171 57.544 336.72 56.136 334.843 55.112C333.051 54.088 330.832 53.576 328.187 53.576H306.939V38.344H326.523C329.851 38.344 332.539 37.5333 334.587 35.912C336.635 34.2053 337.659 31.6453 337.659 28.232C337.659 24.904 336.635 22.4293 334.587 20.808C332.539 19.1013 329.851 18.248 326.523 18.248H306.939V2.632H330.363C336.166 2.632 341.072 3.69866 345.083 5.83199C349.179 7.96533 352.294 10.824 354.427 14.408C356.56 17.992 357.627 21.96 357.627 26.312C357.627 31.8587 355.835 36.552 352.251 40.392C348.667 44.232 343.376 46.8773 336.379 48.328L336.891 41.544C344.486 42.9947 350.331 45.9387 354.427 50.376C358.608 54.8133 360.699 60.2747 360.699 66.76C360.699 71.7093 359.462 76.1893 356.987 80.2C354.598 84.1253 351.099 87.24 346.491 89.544C341.968 91.848 336.507 93 330.107 93H306.939ZM291.579 93V2.632H311.419V93H291.579ZM399.435 94.408C393.718 94.408 388.64 93.256 384.203 90.952C379.851 88.5627 376.438 85.32 373.963 81.224C371.488 77.0427 370.251 72.264 370.251 66.888V30.792H389.835V66.632C389.835 68.7653 390.176 70.6 390.859 72.136C391.627 73.672 392.736 74.8667 394.187 75.72C395.638 76.5733 397.387 77 399.435 77C402.336 77 404.64 76.104 406.347 74.312C408.054 72.4347 408.907 69.8747 408.907 66.632V30.792H428.491V66.76C428.491 72.2213 427.254 77.0427 424.779 81.224C422.304 85.32 418.891 88.5627 414.539 90.952C410.187 93.256 405.152 94.408 399.435 94.408ZM467.283 94.28C461.395 94.28 456.147 92.872 451.539 90.056C447.016 87.24 443.432 83.4 440.787 78.536C438.227 73.672 436.947 68.1253 436.947 61.896C436.947 55.6667 438.227 50.12 440.787 45.256C443.432 40.392 447.016 36.552 451.539 33.736C456.147 30.92 461.395 29.512 467.283 29.512C471.55 29.512 475.39 30.3227 478.803 31.944C482.302 33.5653 485.16 35.8267 487.379 38.728C489.683 41.544 490.963 44.7867 491.219 48.456V74.696C490.963 78.3653 489.726 81.6933 487.507 84.68C485.288 87.5813 482.43 89.928 478.931 91.72C475.432 93.4267 471.55 94.28 467.283 94.28ZM470.739 76.616C473.555 76.616 475.987 76.0187 478.035 74.824C480.083 73.544 481.704 71.7947 482.899 69.576C484.094 67.3573 484.691 64.7973 484.691 61.896C484.691 58.9947 484.094 56.4773 482.899 54.344C481.79 52.1253 480.168 50.376 478.035 49.096C475.987 47.816 473.598 47.176 470.867 47.176C468.136 47.176 465.704 47.816 463.571 49.096C461.523 50.376 459.859 52.1253 458.579 54.344C457.384 56.5627 456.787 59.08 456.787 61.896C456.787 64.712 457.384 67.2293 458.579 69.448C459.774 71.6667 461.438 73.416 463.571 74.696C465.704 75.976 468.094 76.616 470.739 76.616ZM503.123 93H483.923V76.232L486.867 61.128L483.539 46.024V0.0719986H503.123V93ZM539.568 94.536C535.899 94.536 532.272 94.0667 528.688 93.128C525.189 92.1893 521.904 90.8667 518.832 89.16C515.845 87.368 513.285 85.32 511.152 83.016L522.288 71.752C524.336 73.9707 526.768 75.72 529.584 77C532.4 78.1947 535.472 78.792 538.8 78.792C541.104 78.792 542.853 78.4507 544.048 77.768C545.328 77.0853 545.968 76.1467 545.968 74.952C545.968 73.416 545.2 72.264 543.664 71.496C542.213 70.6427 540.336 69.9173 538.032 69.32C535.728 68.6373 533.296 67.912 530.736 67.144C528.176 66.376 525.744 65.3093 523.44 63.944C521.136 62.5787 519.259 60.7013 517.808 58.312C516.357 55.8373 515.632 52.7227 515.632 48.968C515.632 44.9573 516.656 41.5013 518.704 38.6C520.752 35.6133 523.653 33.2667 527.408 31.56C531.163 29.8533 535.557 29 540.592 29C545.883 29 550.747 29.9387 555.184 31.816C559.707 33.608 563.376 36.296 566.192 39.88L555.056 51.144C553.093 48.84 550.875 47.2187 548.4 46.28C546.011 45.3413 543.664 44.872 541.36 44.872C539.141 44.872 537.477 45.2133 536.368 45.896C535.259 46.4933 534.704 47.3893 534.704 48.584C534.704 49.864 535.429 50.888 536.88 51.656C538.331 52.424 540.208 53.1067 542.512 53.704C544.816 54.3013 547.248 55.0267 549.808 55.88C552.368 56.7333 554.8 57.8853 557.104 59.336C559.408 60.7867 561.285 62.7493 562.736 65.224C564.187 67.6133 564.912 70.7707 564.912 74.696C564.912 80.7547 562.608 85.576 558 89.16C553.477 92.744 547.333 94.536 539.568 94.536ZM598.193 94.536C594.524 94.536 590.897 94.0667 587.313 93.128C583.814 92.1893 580.529 90.8667 577.457 89.16C574.47 87.368 571.91 85.32 569.777 83.016L580.913 71.752C582.961 73.9707 585.393 75.72 588.209 77C591.025 78.1947 594.097 78.792 597.425 78.792C599.729 78.792 601.478 78.4507 602.673 77.768C603.953 77.0853 604.593 76.1467 604.593 74.952C604.593 73.416 603.825 72.264 602.289 71.496C600.838 70.6427 598.961 69.9173 596.657 69.32C594.353 68.6373 591.921 67.912 589.361 67.144C586.801 66.376 584.369 65.3093 582.065 63.944C579.761 62.5787 577.884 60.7013 576.433 58.312C574.982 55.8373 574.257 52.7227 574.257 48.968C574.257 44.9573 575.281 41.5013 577.329 38.6C579.377 35.6133 582.278 33.2667 586.033 31.56C589.788 29.8533 594.182 29 599.217 29C604.508 29 609.372 29.9387 613.809 31.816C618.332 33.608 622.001 36.296 624.817 39.88L613.681 51.144C611.718 48.84 609.5 47.2187 607.025 46.28C604.636 45.3413 602.289 44.872 599.985 44.872C597.766 44.872 596.102 45.2133 594.993 45.896C593.884 46.4933 593.329 47.3893 593.329 48.584C593.329 49.864 594.054 50.888 595.505 51.656C596.956 52.424 598.833 53.1067 601.137 53.704C603.441 54.3013 605.873 55.0267 608.433 55.88C610.993 56.7333 613.425 57.8853 615.729 59.336C618.033 60.7867 619.91 62.7493 621.361 65.224C622.812 67.6133 623.537 70.7707 623.537 74.696C623.537 80.7547 621.233 85.576 616.625 89.16C612.102 92.744 605.958 94.536 598.193 94.536ZM682.857 93L653.801 2.632H673.769L695.017 72.136H687.209L707.945 2.632H723.689L744.425 72.136H736.745L757.865 2.632H777.705L748.649 93H732.905L712.041 23.496H719.465L698.601 93H682.857ZM808.739 94.408C802.339 94.408 796.536 93 791.331 90.184C786.211 87.2827 782.158 83.3573 779.171 78.408C776.184 73.4587 774.691 67.912 774.691 61.768C774.691 55.624 776.184 50.12 779.171 45.256C782.158 40.392 786.211 36.552 791.331 33.736C796.451 30.8347 802.254 29.384 808.739 29.384C815.224 29.384 821.027 30.792 826.147 33.608C831.267 36.424 835.32 40.3067 838.307 45.256C841.294 50.12 842.787 55.624 842.787 61.768C842.787 67.912 841.294 73.4587 838.307 78.408C835.32 83.3573 831.267 87.2827 826.147 90.184C821.027 93 815.224 94.408 808.739 94.408ZM808.739 76.616C811.555 76.616 814.03 76.0187 816.163 74.824C818.296 73.544 819.918 71.7947 821.027 69.576C822.222 67.272 822.819 64.6693 822.819 61.768C822.819 58.8667 822.222 56.3493 821.027 54.216C819.832 51.9973 818.168 50.2907 816.035 49.096C813.987 47.816 811.555 47.176 808.739 47.176C806.008 47.176 803.576 47.816 801.443 49.096C799.31 50.2907 797.646 51.9973 796.451 54.216C795.256 56.4347 794.659 58.9947 794.659 61.896C794.659 64.712 795.256 67.272 796.451 69.576C797.646 71.7947 799.31 73.544 801.443 74.824C803.576 76.0187 806.008 76.616 808.739 76.616ZM852.537 93V30.792H872.121V93H852.537ZM872.121 58.824L863.929 52.424C865.55 45.1707 868.281 39.5387 872.121 35.528C875.961 31.5173 881.294 29.512 888.121 29.512C891.108 29.512 893.71 29.9813 895.929 30.92C898.233 31.7733 900.238 33.1387 901.945 35.016L890.297 49.736C889.444 48.7973 888.377 48.072 887.097 47.56C885.817 47.048 884.366 46.792 882.745 46.792C879.502 46.792 876.9 47.816 874.937 49.864C873.06 51.8267 872.121 54.8133 872.121 58.824ZM946.97 93L925.21 60.744L946.842 30.792H968.73L942.618 64.456L943.258 56.392L970.01 93H946.97ZM907.162 93V0.0719986H926.746V93H907.162ZM996.068 94.536C992.399 94.536 988.772 94.0667 985.188 93.128C981.689 92.1893 978.404 90.8667 975.332 89.16C972.345 87.368 969.785 85.32 967.652 83.016L978.788 71.752C980.836 73.9707 983.268 75.72 986.084 77C988.9 78.1947 991.972 78.792 995.3 78.792C997.604 78.792 999.353 78.4507 1000.55 77.768C1001.83 77.0853 1002.47 76.1467 1002.47 74.952C1002.47 73.416 1001.7 72.264 1000.16 71.496C998.713 70.6427 996.836 69.9173 994.532 69.32C992.228 68.6373 989.796 67.912 987.236 67.144C984.676 66.376 982.244 65.3093 979.94 63.944C977.636 62.5787 975.759 60.7013 974.308 58.312C972.857 55.8373 972.132 52.7227 972.132 48.968C972.132 44.9573 973.156 41.5013 975.204 38.6C977.252 35.6133 980.153 33.2667 983.908 31.56C987.663 29.8533 992.057 29 997.092 29C1002.38 29 1007.25 29.9387 1011.68 31.816C1016.21 33.608 1019.88 36.296 1022.69 39.88L1011.56 51.144C1009.59 48.84 1007.37 47.2187 1004.9 46.28C1002.51 45.3413 1000.16 44.872 997.86 44.872C995.641 44.872 993.977 45.2133 992.868 45.896C991.759 46.4933 991.204 47.3893 991.204 48.584C991.204 49.864 991.929 50.888 993.38 51.656C994.831 52.424 996.708 53.1067 999.012 53.704C1001.32 54.3013 1003.75 55.0267 1006.31 55.88C1008.87 56.7333 1011.3 57.8853 1013.6 59.336C1015.91 60.7867 1017.79 62.7493 1019.24 65.224C1020.69 67.6133 1021.41 70.7707 1021.41 74.696C1021.41 80.7547 1019.11 85.576 1014.5 89.16C1009.98 92.744 1003.83 94.536 996.068 94.536Z" fill="#A64CED"/>
</svg>
