<svg width="80" height="80" viewBox="0 0 80 80" fill="none" xmlns="http://www.w3.org/2000/svg">
<path d="M35.4837 8.67252C37.0945 4.31943 43.2514 4.31944 44.8622 8.67253L51.3058 26.0861C51.8122 27.4547 52.8913 28.5337 54.2599 29.0401L71.6734 35.4837C76.0265 37.0945 76.0265 43.2514 71.6734 44.8622L54.2599 51.3058C52.8913 51.8122 51.8122 52.8913 51.3058 54.2599L44.8622 71.6734C43.2514 76.0265 37.0945 76.0265 35.4837 71.6734L29.0401 54.2599C28.5337 52.8913 27.4546 51.8122 26.0861 51.3058L8.67252 44.8622C4.31943 43.2514 4.31944 37.0945 8.67253 35.4837L26.0861 29.0401C27.4547 28.5337 28.5337 27.4546 29.0401 26.0861L35.4837 8.67252Z" stroke="#FFAA4C" stroke-width="10"/>
</svg>
